<svg width="20" height="18" viewBox="0 0 20 18" fill="none" xmlns="http://www.w3.org/2000/svg">
<g clip-path="url(#clip0_15201_14701)">
<path d="M4.08423 0.801758C5.93595 0.133858 8.17043 0.631948 9.677 2.95898L10.0129 3.47656L10.3489 2.95898C11.8643 0.622626 13.9906 0.150878 15.718 0.814453C17.4708 1.48785 18.8938 3.36045 18.8938 5.88965C18.8937 6.78048 18.422 7.85497 17.6272 9.0166C16.8405 10.1664 15.7764 11.3473 14.675 12.4385C13.5755 13.5279 12.4488 14.5187 11.5442 15.291C11.0915 15.6775 10.6968 16.0073 10.386 16.2695C10.2454 16.3881 10.1184 16.4964 10.011 16.5898C9.89854 16.4947 9.76577 16.3845 9.61841 16.2646C9.29316 16.0001 8.88505 15.6738 8.40942 15.2852C7.46374 14.5125 6.28257 13.5213 5.12817 12.4316C3.97166 11.34 2.85198 10.1588 2.02466 9.00879C1.18807 7.84586 0.694652 6.77422 0.69458 5.88965C0.69458 3.35533 2.21378 1.47648 4.08423 0.801758Z" stroke="#363A45" stroke-width="0.8"/>
</g>
<defs>
<clipPath id="clip0_15201_14701">
<rect width="19" height="17" fill="white" transform="translate(0.294189 0.128906)"/>
</clipPath>
</defs>
</svg>
